<?xml version="1.0" standalone="no"?>
<!DOCTYPE svg PUBLIC "-//W3C//DTD SVG 20010904//EN"
 "http://www.w3.org/TR/2001/REC-SVG-20010904/DTD/svg10.dtd">
<svg version="1.0" xmlns="http://www.w3.org/2000/svg"
 width="300.000000pt" height="102.000000pt" viewBox="0 0 300.000000 102.000000"
 preserveAspectRatio="xMidYMid meet">
<metadata>
Created by potrace 1.10, written by Peter Selinger 2001-2011
</metadata>
<g transform="translate(0.000000,102.000000) scale(0.100000,-0.100000)"
fill="#000000" stroke="none">
<path d="M10 984 c-13 -34 -13 -914 0 -948 l10 -26 1480 0 1480 0 10 26 c13
34 13 914 0 948 l-10 26 -1480 0 -1480 0 -10 -26z m2945 -474 l0 -465 -1455 0
-1455 0 -3 455 c-1 250 0 461 3 468 3 10 300 12 1457 10 l1453 -3 0 -465z"/>
<path d="M130 505 l0 -365 140 0 140 0 0 35 0 35 -97 0 -98 0 0 180 0 180 78
0 77 0 0 35 0 35 -77 0 -78 0 0 81 0 80 93 -3 92 -3 0 38 0 37 -135 0 -135 0
0 -365z m80 98 c0 -14 -27 -30 -36 -20 -3 2 -2 17 2 31 5 21 9 24 20 15 8 -6
14 -18 14 -26z"/>
<path d="M520 832 c0 -60 28 -152 60 -195 l29 -40 -25 -30 c-54 -64 -58 -81
-62 -259 l-4 -168 41 0 41 0 0 153 c0 145 1 156 26 205 14 29 29 52 33 52 4 0
18 -19 31 -42 23 -40 24 -53 25 -205 l0 -163 43 0 42 0 0 129 c0 159 -12 224
-50 279 -33 47 -37 64 -16 81 25 21 57 110 63 176 l6 65 -40 0 -40 0 -5 -67
c-5 -66 -38 -153 -57 -153 -21 0 -54 93 -55 156 l-1 64 -42 0 -43 0 0 -38z
m160 -232 c0 -13 -7 -20 -20 -20 -13 0 -20 7 -20 20 0 13 7 20 20 20 13 0 20
-7 20 -20z"/>
<path d="M1016 848 c-8 -13 -29 -97 -47 -188 -24 -129 -33 -204 -38 -343 l-6
-177 43 0 42 0 0 153 c0 125 5 183 30 322 16 94 30 173 30 178 0 4 6 7 13 7
25 0 70 -292 75 -487 l4 -173 41 0 42 0 -6 177 c-5 141 -13 213 -38 343 -17
90 -38 174 -46 187 -13 19 -24 23 -70 23 -46 0 -57 -4 -69 -22z"/>
<path d="M1370 505 l0 -365 145 0 145 0 0 35 0 35 -105 0 -106 0 3 330 3 330
-42 0 -43 0 0 -365z"/>
<path d="M1760 505 l0 -365 135 0 135 0 0 35 0 35 -95 0 -95 0 0 180 0 180 75
0 75 0 0 35 0 35 -75 0 -75 0 0 81 0 80 90 -3 90 -3 0 38 0 37 -130 0 -130 0
0 -365z m64 117 c15 -18 15 -20 -4 -37 -20 -18 -20 -18 -20 18 0 43 1 43 24
19z"/>
<path d="M2145 506 l0 -366 43 0 43 0 -3 330 -3 331 54 -3 c46 -3 57 -7 75
-31 20 -27 21 -42 24 -328 l4 -299 40 0 40 0 -4 308 c-4 329 -7 352 -58 397
-19 17 -39 20 -139 23 l-116 4 0 -366z"/>
<path d="M2540 833 l0 -38 60 3 60 4 0 -331 0 -331 43 0 42 0 -3 331 -3 330
63 -2 63 -3 3 37 3 37 -165 0 -166 0 0 -37z m180 -16 c0 -21 -12 -28 -27 -16
-19 16 -16 29 7 29 11 0 20 -6 20 -13z"/>
</g>
</svg>
